<?xml version="1.0" encoding="utf-8"?>
<!-- Generator: Adobe Illustrator 25.4.1, SVG Export Plug-In . SVG Version: 6.00 Build 0)  -->
<svg version="1.1" id="Layer_1" xmlns="http://www.w3.org/2000/svg" xmlns:xlink="http://www.w3.org/1999/xlink" x="0px" y="0px"
	 viewBox="0 0 36 36" style="enable-background:new 0 0 36 36;" xml:space="preserve">
<style type="text/css">
	.st0{fill:#5FFFC5;}
	.st1{fill:#FFFFFF;}
</style>
<path class="st0" d="M34,4V2h-2V0H4v2H2v2H0v28h2v2h2v2h28v-2h2v-2h2V4H34z"/>
<g>
	<rect x="7" y="10" class="st1" width="5" height="16"/>
	<rect x="16" y="4" transform="matrix(-1.836970e-16 1 -1 -1.836970e-16 30 -6)" class="st1" width="4" height="16"/>
	<rect x="16" y="15" transform="matrix(-1.836970e-16 1 -1 -1.836970e-16 41 5)" class="st1" width="4" height="16"/>
	<rect x="16" y="13" transform="matrix(-1.836970e-16 1 -1 -1.836970e-16 39 3)" class="st1" width="4" height="16"/>
	<rect x="24" y="10" class="st1" width="5" height="16"/>
	<rect x="15" y="11" transform="matrix(-1 -1.224647e-16 1.224647e-16 -1 34 36)" class="st1" width="4" height="14"/>
	<rect x="17" y="11" transform="matrix(-1 -1.224647e-16 1.224647e-16 -1 38 36)" class="st1" width="4" height="14"/>
</g>
</svg>
