<?xml version="1.0" encoding="utf-8"?>
<!-- Generator: Adobe Illustrator 25.4.1, SVG Export Plug-In . SVG Version: 6.00 Build 0)  -->
<svg version="1.1" id="Layer_1" xmlns="http://www.w3.org/2000/svg" xmlns:xlink="http://www.w3.org/1999/xlink" x="0px" y="0px"
	 viewBox="0 0 584 822" style="enable-background:new 0 0 584 822;" xml:space="preserve">
<style type="text/css">
	.st0{fill:url(#SVGID_1_);}
	.st1{fill:#100642;}
	.st2{fill:#6EFAFF;}
	.st3{fill:#F03DDB;}
	.st4{fill:url(#SVGID_00000101819905242780048060000008049512192753222062_);}
	.st5{fill:#5CE0FF;}
	.st6{fill:#0083DB;}
	.st7{fill:#3700A9;}
	.st8{fill:#4D00E0;}
	.st9{fill:url(#SVGID_00000111193509493122514270000008901840547101908159_);}
	.st10{fill:#6F696B;}
	.st11{fill:#3D076B;}
	.st12{fill:#425666;}
	.st13{fill:#E34D95;}
	.st14{fill:url(#SVGID_00000183222916214149896400000011136928984818241449_);}
	.st15{fill:#23BCCC;}
	.st16{fill:#47EBE0;}
	.st17{fill:#97FFEB;}
</style>
<g>
	<g>
		
			<linearGradient id="SVGID_1_" gradientUnits="userSpaceOnUse" x1="291.72" y1="5.46" x2="291.72" y2="815.98" gradientTransform="matrix(1 0 0 -1 0 822)">
			<stop  offset="0" style="stop-color:#200E36"/>
			<stop  offset="1" style="stop-color:#242783"/>
		</linearGradient>
		<path class="st0" d="M554.5,6H28.9C16.1,6,5.7,16.4,5.7,29.3v764c0,12.8,10.4,23.2,23.2,23.2h445.7c56.9,0,103.1-46.1,103.1-103.1
			V29.3C577.7,16.4,567.3,6,554.5,6z M382,371.8c0,5.7-4.6,10.2-10.2,10.2H122.2c-5.7,0-10.2-4.6-10.2-10.2V128.2
			c0-5.7,4.6-10.2,10.2-10.2h249.5c5.7,0,10.2,4.6,10.2,10.2L382,371.8L382,371.8z"/>
		<g>
			<path class="st1" d="M474.7,821.6H28.9c-15.6,0-28.3-12.7-28.3-28.3v-764C0.7,13.7,13.3,1,28.9,1h525.5
				c15.6,0,28.3,12.7,28.3,28.3v684.2C582.8,773.1,534.3,821.6,474.7,821.6z M28.9,11.1c-10,0-18.2,8.2-18.2,18.2v764
				c0,10,8.2,18.2,18.2,18.2h445.7c54.1,0,98-44,98-98V29.3c0-10-8.2-18.2-18.2-18.2C554.5,11.1,28.9,11.1,28.9,11.1z"/>
		</g>
		<g>
			<path class="st1" d="M429.6,821.6H74c-15.6,0-28.3-12.7-28.3-28.3v-764C45.7,13.7,58.4,1,74,1h435.5c15.6,0,28.3,12.7,28.3,28.3
				v684.2C537.7,773.1,489.2,821.6,429.6,821.6z M74,11.1c-10,0-18.2,8.2-18.2,18.2v764c0,10,8.2,18.2,18.2,18.2h355.7
				c54,0,98-44,98-98V29.3c0-10-8.2-18.2-18.2-18.2C509.5,11.1,74,11.1,74,11.1z"/>
		</g>
		<g>
			<path class="st2" d="M555.9,219.5h-23.2v-74.2h23.2c4.3,0,7.8,3.5,7.8,7.8v58.7C563.6,216,560.1,219.5,555.9,219.5z"/>
		</g>
		<g>
			<path class="st1" d="M555.9,224.6h-23.2c-2.8,0-5-2.2-5-5v-74.2c0-2.8,2.3-5,5-5h23.2c7,0,12.8,5.7,12.8,12.8v58.7
				C568.6,218.8,562.9,224.6,555.9,224.6z M537.7,214.5h18.1c1.5,0,2.7-1.2,2.7-2.7v-58.7c0-1.5-1.2-2.7-2.7-2.7h-18.1V214.5z"/>
		</g>
		<g>
			<path class="st3" d="M547.5,353.1h-14.8V245.8h14.8c4.3,0,7.8,3.5,7.8,7.8v91.8C555.2,349.6,551.7,353.1,547.5,353.1z"/>
		</g>
		<g>
			<path class="st1" d="M547.5,358.1h-14.8c-2.8,0-5-2.3-5-5V245.8c0-2.8,2.3-5,5-5h14.8c7,0,12.8,5.7,12.8,12.8v91.8
				C560.2,352.4,554.5,358.1,547.5,358.1z M537.7,348h9.7c1.5,0,2.7-1.2,2.7-2.7v-91.8c0-1.5-1.2-2.7-2.7-2.7h-9.7V348z"/>
		</g>
		<g>
			<path class="st1" d="M577.7,718.5h-45c-2.8,0-5-2.3-5-5s2.3-5,5-5h45c2.8,0,5,2.3,5,5S580.5,718.5,577.7,718.5z"/>
		</g>
		<g>
			<path class="st1" d="M577.7,683.3h-45c-2.8,0-5-2.3-5-5c0-2.8,2.3-5,5-5h45c2.8,0,5,2.3,5,5C582.8,681,580.5,683.3,577.7,683.3z"
				/>
		</g>
		<g>
			<path class="st1" d="M577.7,648h-45c-2.8,0-5-2.3-5-5c0-2.8,2.3-5,5-5h45c2.8,0,5,2.3,5,5C582.8,645.8,580.5,648,577.7,648z"/>
		</g>
		<g>
			<path class="st1" d="M577.7,612.8h-45c-2.8,0-5-2.3-5-5c0-2.8,2.3-5,5-5h45c2.8,0,5,2.3,5,5C582.8,610.5,580.5,612.8,577.7,612.8
				z"/>
		</g>
		<g>
			<path class="st1" d="M577.7,577.6h-45c-2.8,0-5-2.3-5-5c0-2.8,2.3-5,5-5h45c2.8,0,5,2.3,5,5C582.8,575.3,580.5,577.6,577.7,577.6
				z"/>
		</g>
		<g>
			<path class="st1" d="M577.7,542.3h-45c-2.8,0-5-2.3-5-5c0-2.8,2.3-5,5-5h45c2.8,0,5,2.3,5,5C582.8,540.1,580.5,542.3,577.7,542.3
				z"/>
		</g>
		<g>
			<path class="st1" d="M577.7,507.1h-45c-2.8,0-5-2.3-5-5s2.3-5,5-5h45c2.8,0,5,2.2,5,5S580.5,507.1,577.7,507.1z"/>
		</g>
		<g>
			<path class="st1" d="M577.7,471.9h-45c-2.8,0-5-2.3-5-5s2.3-5,5-5h45c2.8,0,5,2.3,5,5C582.8,469.6,580.5,471.9,577.7,471.9z"/>
		</g>
		<g>
			<path class="st1" d="M577.7,436.6h-45c-2.8,0-5-2.3-5-5s2.3-5,5-5h45c2.8,0,5,2.2,5,5S580.5,436.6,577.7,436.6z"/>
		</g>
	</g>
	
		<linearGradient id="SVGID_00000067199784439501089070000010633852078506733756_" gradientUnits="userSpaceOnUse" x1="-102.1742" y1="612.1353" x2="570.2614" y2="223.9045" gradientTransform="matrix(1 0 0 -1 0 822)">
		<stop  offset="0" style="stop-color:#71FEFF"/>
		<stop  offset="1" style="stop-color:#682BA2"/>
	</linearGradient>
	<path style="fill:url(#SVGID_00000067199784439501089070000010633852078506733756_);" d="M464.4,6H28.9C16.1,6,5.7,16.4,5.7,29.3
		v764c0,12.8,10.4,23.2,23.2,23.2h355.7c56.9,0,103.1-46.1,103.1-103.1V29.3C487.7,16.4,477.3,6,464.4,6z M382,371.8
		c0,5.7-4.6,10.2-10.2,10.2H122.2c-5.7,0-10.2-4.6-10.2-10.2V128.2c0-5.7,4.6-10.2,10.2-10.2h249.5c5.7,0,10.2,4.6,10.2,10.2
		L382,371.8L382,371.8z"/>
	<g>
		<path class="st1" d="M384.6,821.6H28.9c-15.6,0-28.3-12.7-28.3-28.3v-764C0.7,13.7,13.3,1,28.9,1h435.5
			c15.6,0,28.3,12.7,28.3,28.3v684.2C492.7,773.1,444.2,821.6,384.6,821.6z M28.9,11.1c-10,0-18.2,8.2-18.2,18.2v764
			c0,10,8.2,18.2,18.2,18.2h355.7c54,0,98-44,98-98V29.3c0-10-8.2-18.2-18.2-18.2C464.4,11.1,28.9,11.1,28.9,11.1z"/>
	</g>
	<g>
		<path class="st1" d="M577.7,76.1H5.7c-2.8,0-5-2.3-5-5s2.3-5,5-5h572c2.8,0,5,2.2,5,5S580.5,76.1,577.7,76.1z"/>
	</g>
	<g>
		<path class="st1" d="M181.6,54.1H96.4c-8.6,0-15.5-7-15.5-15.5s6.9-15.5,15.5-15.5h85.2c8.6,0,15.5,7,15.5,15.5
			C197.1,47.1,190.1,54.1,181.6,54.1z M96.4,33.1c-3,0-5.4,2.4-5.4,5.4s2.4,5.4,5.4,5.4h85.2c3,0,5.4-2.4,5.4-5.4s-2.4-5.4-5.4-5.4
			H96.4z"/>
	</g>
	<g>
		<path class="st1" d="M247.3,800.8h-54.8c-8.6,0-15.5-7-15.5-15.5s6.9-15.5,15.5-15.5h54.8c8.6,0,15.5,7,15.5,15.5
			C262.8,793.9,255.9,800.8,247.3,800.8z M192.5,779.9c-3,0-5.4,2.4-5.4,5.4s2.4,5.4,5.4,5.4h54.8c3,0,5.4-2.4,5.4-5.4
			s-2.4-5.4-5.4-5.4H192.5z"/>
	</g>
	<g>
		<g>
			<path class="st1" d="M57.2,76.1c-2.8,0-5-2.3-5-5V6c0-2.8,2.3-5,5-5c2.8,0,5,2.3,5,5v65.1C62.3,73.9,60,76.1,57.2,76.1z"/>
		</g>
		<g>
			<path class="st1" d="M436.1,76.1c-2.8,0-5-2.3-5-5V6c0-2.8,2.3-5,5-5s5,2.3,5,5v65.1C441.2,73.9,438.9,76.1,436.1,76.1z"/>
		</g>
	</g>
	<path class="st5" d="M456.6,93.2H36.8c-8.9,0-16.1,7.2-16.1,16.1v279.8c0,8.9,7.2,16.1,16.1,16.1h371.4c35.6,0,64.5-28.9,64.5-64.5
		V109.3C472.7,100.4,465.5,93.2,456.6,93.2z M382,371.8c0,5.7-4.6,10.2-10.2,10.2H122.2c-5.7,0-10.2-4.6-10.2-10.2V128.2
		c0-5.7,4.6-10.2,10.2-10.2h249.5c5.7,0,10.2,4.6,10.2,10.2L382,371.8L382,371.8z"/>
	<path class="st6" d="M439.9,109.7H53.5c-11.3,0-20.5,9.2-20.5,20.5v281c0,11.3,9.2,20.5,20.5,20.5h339.9c37,0,67-30.1,67-67V130.2
		C460.4,118.9,451.2,109.7,439.9,109.7z M382,371.8c0,5.7-4.6,10.2-10.2,10.2H122.2c-5.7,0-10.2-4.6-10.2-10.2V128.2
		c0-5.7,4.6-10.2,10.2-10.2h249.5c5.7,0,10.2,4.6,10.2,10.2L382,371.8L382,371.8z"/>
	<path class="st7" d="M439.9,93.2H53.5c-8.6,0-15.5,6.9-15.5,15.5v281c0,8.6,6.9,15.5,15.5,15.5h339.9c34.2,0,62-27.8,62-62V108.7
		C455.4,100.1,448.4,93.2,439.9,93.2z M382,371.8c0,5.7-4.6,10.2-10.2,10.2H122.2c-5.7,0-10.2-4.6-10.2-10.2V128.2
		c0-5.7,4.6-10.2,10.2-10.2h249.5c5.7,0,10.2,4.6,10.2,10.2L382,371.8L382,371.8z"/>
	<g>
		<g>
			<path class="st8" d="M397.5,385.2h-345c-8,0-14.5-6.5-14.5-14.5v19c0,8.6,6.9,15.5,15.5,15.5h339.9c34.2,0,62-27.8,62-62v-15.9
				C455.4,359.3,429.5,385.2,397.5,385.2z"/>
		</g>
		<g>
			
				<linearGradient id="SVGID_00000180341888291430818300000007847433012747349383_" gradientUnits="userSpaceOnUse" x1="37.98" y1="711.565" x2="455.38" y2="711.565" gradientTransform="matrix(1 0 0 -1 0 822)">
				<stop  offset="0" style="stop-color:#200E36"/>
				<stop  offset="1" style="stop-color:#242783"/>
			</linearGradient>
			<path style="fill:url(#SVGID_00000180341888291430818300000007847433012747349383_);" d="M439.9,93.2H53.5
				c-8.6,0-15.5,6.9-15.5,15.5v19c0-8,6.5-14.5,14.5-14.5h388.5c8,0,14.5,6.5,14.5,14.5v-19C455.4,100.1,448.4,93.2,439.9,93.2z"/>
		</g>
	</g>
	<g>
		<path class="st1" d="M393.4,410.2H53.5c-11.3,0-20.5-9.2-20.5-20.5v-281c0-11.3,9.2-20.5,20.5-20.5h386.4
			c11.3,0,20.5,9.2,20.5,20.5v234.5C460.4,380.2,430.4,410.2,393.4,410.2z M53.5,98.2c-5.8,0-10.5,4.7-10.5,10.5v281
			c0,5.8,4.7,10.5,10.5,10.5h339.9c31.4,0,57-25.5,57-57V108.7c0-5.8-4.7-10.5-10.5-10.5H53.5z"/>
	</g>
	<g>
		<path class="st1" d="M381.2,385.4H112.1c-2.8,0-5-2.3-5-5V118c0-2.8,2.2-5,5-5h269.1c2.8,0,5,2.3,5,5v262.4
			C386.3,383.2,384,385.4,381.2,385.4z M117.2,375.4h259.1V123H117.2V375.4z"/>
	</g>
	<g>
		<path class="st6" d="M153.3,540.9H127v-26.3c0-7-5.7-12.8-12.8-12.8H89c-7.1,0-12.8,5.7-12.8,12.8v26.3H49.9
			c-7,0-12.8,5.7-12.8,12.8v25.2c0,7,5.7,12.8,12.8,12.8h26.3V618c0,7,5.7,12.8,12.8,12.8h25.2c7.1,0,12.8-5.7,12.8-12.8v-26.3h26.4
			c7.1,0,12.8-5.7,12.8-12.8v-25.2C166.1,546.6,160.4,540.9,153.3,540.9z"/>
	</g>
	<g>
		<path class="st1" d="M127,582.1v26.3c0,7.1-5.7,12.8-12.8,12.8H89c-7.1,0-12.8-5.7-12.8-12.8v-26.3l0-50.8V505
			c0-7,5.7-12.8,12.8-12.8h25.2c7.1,0,12.8,5.7,12.8,12.8v26.4L127,582.1z M121.9,541.5c-2.8,0-5-2.3-5-5V505c0-1.5-1.2-2.7-2.7-2.7
			H89c-1.5,0-2.7,1.2-2.7,2.7v31.4c0,2.8-2.2,5-5,5 M81.2,572.1c2.8,0,5,2.2,5,5v31.4c0,1.5,1.2,2.7,2.7,2.7h25.2
			c1.5,0,2.7-1.2,2.7-2.7v-31.4c0-2.8,2.3-5,5-5"/>
	</g>
	<g>
		<path class="st1" d="M101.6,572.3c-8.6,0-15.6-7-15.6-15.6s7-15.6,15.6-15.6s15.6,7,15.6,15.6S110.2,572.3,101.6,572.3z
			 M101.6,551.3c-3,0-5.5,2.5-5.5,5.5s2.5,5.5,5.5,5.5s5.5-2.5,5.5-5.5S104.6,551.3,101.6,551.3z"/>
	</g>
	<g>
		<g>
			<g>
				<ellipse class="st6" cx="346.2" cy="579" rx="35.3" ry="35.3"/>
			</g>
		</g>
		<g>
			<path class="st1" d="M346.2,604.2c-19.4,0-35.3-15.8-35.3-35.3s15.8-35.3,35.3-35.3s35.3,15.8,35.3,35.3
				C381.5,588.4,365.7,604.2,346.2,604.2z M346.2,543.8c-13.9,0-25.2,11.3-25.2,25.2c0,13.9,11.3,25.2,25.2,25.2
				c13.9,0,25.2-11.3,25.2-25.2C371.4,555.1,360.1,543.8,346.2,543.8z"/>
		</g>
	</g>
	<g>
		<g>
			<path class="st6" d="M193.3,659.9l-41.7,20.6c-3.2,1.6-5.7,4.4-6.8,7.8c-1.2,3.4-0.9,7.1,0.7,10.3c1.6,3.2,4.4,5.7,7.8,6.8
				c1.4,0.5,2.9,0.7,4.4,0.7c2.1,0,4.1-0.5,6-1.4l41.7-20.6c3.2-1.6,5.7-4.4,6.8-7.8c1.2-3.4,0.9-7.1-0.7-10.3
				C208.1,659.3,200,656.6,193.3,659.9z"/>
		</g>
		<g>
			<path class="st6" d="M294.4,666c-3.3-6.7-11.5-9.5-18.1-6.1l-41.7,20.6c-3.2,1.6-5.7,4.4-6.8,7.8c-1.2,3.4-0.9,7.1,0.7,10.3
				c1.6,3.2,4.4,5.7,7.8,6.8c1.4,0.5,2.9,0.7,4.4,0.7c2.1,0,4.1-0.5,6-1.4l41.7-20.6c3.2-1.6,5.7-4.4,6.8-7.8
				C296.2,672.9,296,669.3,294.4,666z"/>
		</g>
	</g>
	<g>
		<g>
			<path class="st10" d="M203.1,671.9l-41.7,20.6c-4.2,2.1-9.3,0.4-11.4-3.9l0,0c-2.1-4.2-0.4-9.3,3.9-11.4l41.7-20.6
				c4.2-2.1,9.3-0.4,11.4,3.9l0,0C209,664.7,207.3,669.8,203.1,671.9z"/>
		</g>
		<g>
			<path class="st10" d="M286,671.9l-41.7,20.6c-4.2,2.1-9.3,0.4-11.4-3.9l0,0c-2.1-4.2-0.4-9.3,3.9-11.4l41.7-20.6
				c4.2-2.1,9.3-0.4,11.4,3.9l0,0C292,664.7,290.2,669.8,286,671.9z"/>
		</g>
	</g>
	<g>
		<g>
			<path class="st1" d="M157.6,698.5c-1.5,0-2.9-0.2-4.4-0.7c-3.4-1.2-6.2-3.6-7.8-6.8c-3.3-6.7-0.6-14.8,6.1-18.2l41.7-20.6
				c3.2-1.6,6.9-1.8,10.4-0.7c3.4,1.2,6.2,3.6,7.8,6.8c3.3,6.7,0.6,14.8-6.1,18.2l0,0L163.6,697C161.7,698,159.7,698.5,157.6,698.5z
				 M199.3,660.8c-0.5,0-1.1,0.1-1.5,0.4l-41.7,20.6c-1.7,0.8-2.4,2.9-1.6,4.7c0.4,0.8,1.1,1.5,2,1.8c0.9,0.3,1.8,0.2,2.7-0.2
				l41.7-20.6l0,0c1.7-0.8,2.4-2.9,1.6-4.7c-0.4-0.8-1.1-1.5-2-1.8C200.1,660.9,199.7,660.8,199.3,660.8z M203.1,671.9L203.1,671.9
				L203.1,671.9z"/>
		</g>
		<g>
			<path class="st1" d="M240.6,698.5c-1.5,0-2.9-0.2-4.4-0.7c-3.4-1.2-6.2-3.6-7.8-6.8c-3.3-6.7-0.6-14.8,6.1-18.2l41.7-20.6
				c6.7-3.3,14.8-0.6,18.1,6.1s0.6,14.8-6.1,18.2l0,0L246.5,697C244.6,698,242.6,698.5,240.6,698.5z M282.2,660.8
				c-0.5,0-1,0.1-1.5,0.4L239,681.8c-0.8,0.4-1.4,1.1-1.8,2s-0.2,1.8,0.2,2.7c0.4,0.8,1.1,1.5,2,1.8c0.9,0.3,1.8,0.2,2.7-0.2
				l41.7-20.6l0,0c1.7-0.8,2.4-2.9,1.6-4.7C284.7,661.5,283.5,660.8,282.2,660.8z M286,671.9L286,671.9L286,671.9z"/>
		</g>
	</g>
	<g>
		<g>
			<path class="st1" d="M344.5,800.8c-1.8,0-3.5-0.9-4.4-2.6l-35.2-63.8c-1.3-2.4-0.5-5.5,2-6.8s5.5-0.5,6.8,2l35.2,63.8
				c1.3,2.4,0.5,5.5-2,6.8C346.2,800.6,345.3,800.8,344.5,800.8z"/>
		</g>
		<g>
			<path class="st1" d="M368.9,787.4c-1.8,0-3.5-0.9-4.4-2.6L329.3,721c-1.3-2.4-0.5-5.5,2-6.8s5.5-0.5,6.8,2l35.2,63.8
				c1.3,2.4,0.5,5.5-2,6.8C370.5,787.2,369.7,787.4,368.9,787.4z"/>
		</g>
		<g>
			<path class="st1" d="M393.2,773.9c-1.8,0-3.5-0.9-4.4-2.6l-35.2-63.8c-1.3-2.4-0.5-5.5,2-6.8s5.5-0.5,6.8,2l35.2,63.8
				c1.3,2.4,0.5,5.5-2,6.8C394.9,773.7,394.1,773.9,393.2,773.9z"/>
		</g>
		<g>
			<path class="st1" d="M417.6,760.5c-1.8,0-3.5-0.9-4.4-2.6L378,694.1c-1.3-2.4-0.5-5.5,2-6.8s5.5-0.5,6.8,2L422,753
				c1.3,2.4,0.5,5.5-2,6.8C419.3,760.3,418.4,760.5,417.6,760.5z"/>
		</g>
		<g>
			<path class="st1" d="M442,747c-1.8,0-3.5-0.9-4.4-2.6l-35.2-63.8c-1.3-2.4-0.5-5.5,2-6.8s5.5-0.5,6.8,2l35.2,63.8
				c1.3,2.4,0.5,5.5-2,6.8C443.6,746.8,442.8,747,442,747z"/>
		</g>
		<g>
			<path class="st1" d="M466.4,733.6c-1.8,0-3.5-0.9-4.4-2.6l-35.2-63.8c-1.3-2.4-0.5-5.5,2-6.8s5.5-0.5,6.8,2l35.2,63.8
				c1.3,2.4,0.5,5.5-2,6.8C468,733.4,467.2,733.6,466.4,733.6z"/>
		</g>
	</g>
	<g>
		<g>
			<g>
				<path class="st11" d="M343.2,808.9c-1.8,0-3.5-0.9-4.4-2.6l-35.2-63.8c-1.3-2.4-0.5-5.5,2-6.8c2.4-1.3,5.5-0.5,6.8,2l35.2,63.8
					c1.3,2.4,0.5,5.5-2,6.8C344.8,808.7,344,808.9,343.2,808.9z"/>
			</g>
		</g>
		<g>
			<g>
				<path class="st11" d="M367.5,795.5c-1.8,0-3.5-0.9-4.4-2.6l-35.2-63.8c-1.3-2.4-0.5-5.5,2-6.8s5.5-0.5,6.8,2l35.2,63.8
					c1.3,2.4,0.5,5.5-2,6.8C369.2,795.2,368.4,795.5,367.5,795.5z"/>
			</g>
		</g>
		<g>
			<g>
				<path class="st11" d="M391.9,782c-1.8,0-3.5-0.9-4.4-2.6l-35.2-63.8c-1.3-2.4-0.5-5.5,2-6.8s5.5-0.5,6.8,2l35.2,63.8
					c1.3,2.4,0.5,5.5-2,6.8C393.5,781.8,392.7,782,391.9,782z"/>
			</g>
		</g>
		<g>
			<g>
				<path class="st11" d="M416.3,768.6c-1.8,0-3.5-0.9-4.4-2.6l-35.2-63.8c-1.3-2.4-0.5-5.5,2-6.8s5.5-0.5,6.8,2l35.2,63.8
					c1.3,2.4,0.5,5.5-2,6.8C417.9,768.4,417.1,768.6,416.3,768.6z"/>
			</g>
		</g>
		<g>
			<g>
				<path class="st11" d="M440.6,755.1c-1.8,0-3.5-0.9-4.4-2.6L401,688.8c-1.3-2.4-0.5-5.5,2-6.8s5.5-0.5,6.8,2l35.2,63.8
					c1.3,2.4,0.5,5.5-2,6.8C442.3,754.9,441.5,755.1,440.6,755.1z"/>
			</g>
		</g>
		<g>
			<g>
				<path class="st11" d="M465,741.7c-1.8,0-3.5-0.9-4.4-2.6l-35.2-63.8c-1.3-2.4-0.5-5.5,2-6.8s5.5-0.5,6.8,2l35.2,63.8
					c1.3,2.4,0.5,5.5-2,6.8C466.6,741.5,465.8,741.7,465,741.7z"/>
			</g>
		</g>
	</g>
	<g>
		<g>
			<path class="st1" d="M344.5,800.8c-1.8,0-3.5-0.9-4.4-2.6l-35.2-63.8c-1.3-2.4-0.5-5.5,2-6.8s5.5-0.5,6.8,2l35.2,63.8
				c1.3,2.4,0.5,5.5-2,6.8C346.2,800.6,345.3,800.8,344.5,800.8z"/>
		</g>
		<g>
			<path class="st1" d="M368.9,787.4c-1.8,0-3.5-0.9-4.4-2.6L329.3,721c-1.3-2.4-0.5-5.5,2-6.8s5.5-0.5,6.8,2l35.2,63.8
				c1.3,2.4,0.5,5.5-2,6.8C370.5,787.2,369.7,787.4,368.9,787.4z"/>
		</g>
		<g>
			<path class="st1" d="M393.2,773.9c-1.8,0-3.5-0.9-4.4-2.6l-35.2-63.8c-1.3-2.4-0.5-5.5,2-6.8s5.5-0.5,6.8,2l35.2,63.8
				c1.3,2.4,0.5,5.5-2,6.8C394.9,773.7,394.1,773.9,393.2,773.9z"/>
		</g>
		<g>
			<path class="st1" d="M417.6,760.5c-1.8,0-3.5-0.9-4.4-2.6L378,694.1c-1.3-2.4-0.5-5.5,2-6.8s5.5-0.5,6.8,2L422,753
				c1.3,2.4,0.5,5.5-2,6.8C419.3,760.3,418.4,760.5,417.6,760.5z"/>
		</g>
		<g>
			<path class="st1" d="M442,747c-1.8,0-3.5-0.9-4.4-2.6l-35.2-63.8c-1.3-2.4-0.5-5.5,2-6.8s5.5-0.5,6.8,2l35.2,63.8
				c1.3,2.4,0.5,5.5-2,6.8C443.6,746.8,442.8,747,442,747z"/>
		</g>
		<g>
			<path class="st1" d="M466.4,733.6c-1.8,0-3.5-0.9-4.4-2.6l-35.2-63.8c-1.3-2.4-0.5-5.5,2-6.8s5.5-0.5,6.8,2l35.2,63.8
				c1.3,2.4,0.5,5.5-2,6.8C468,733.4,467.2,733.6,466.4,733.6z"/>
		</g>
	</g>
	<g>
		<g>
			<path class="st1" d="M143,461.6H38c-2.8,0-5-2.3-5-5s2.2-5,5-5h105c2.8,0,5,2.3,5,5C148.1,459.4,145.8,461.6,143,461.6z"/>
		</g>
		<g>
			<path class="st1" d="M166.4,468.7c-2.8,0-5-2.2-5-5v-14.2c0-2.8,2.2-5,5-5c2.8,0,5,2.3,5,5v14.2
				C171.4,466.5,169.2,468.7,166.4,468.7z"/>
		</g>
		<g>
			<path class="st1" d="M188.1,468.7c-2.8,0-5-2.2-5-5v-14.2c0-2.8,2.3-5,5-5s5,2.3,5,5v14.2C193.1,466.5,190.9,468.7,188.1,468.7z"
				/>
		</g>
		<g>
			<path class="st1" d="M209.8,468.7c-2.8,0-5-2.2-5-5v-14.2c0-2.8,2.3-5,5-5s5,2.3,5,5v14.2C214.9,466.5,212.6,468.7,209.8,468.7z"
				/>
		</g>
		<g>
			<path class="st1" d="M231.6,468.7c-2.8,0-5-2.2-5-5v-14.2c0-2.8,2.3-5,5-5s5,2.3,5,5v14.2C236.6,466.5,234.3,468.7,231.6,468.7z"
				/>
		</g>
		<g>
			<path class="st1" d="M253.3,468.7c-2.8,0-5-2.2-5-5v-14.2c0-2.8,2.3-5,5-5c2.8,0,5,2.3,5,5v14.2
				C258.3,466.5,256,468.7,253.3,468.7z"/>
		</g>
	</g>
	<g>
		<g>
			<g>
				<ellipse class="st6" cx="425.3" cy="542.2" rx="35.3" ry="35.3"/>
			</g>
		</g>
		<g>
			<path class="st1" d="M425.3,567.4c-19.4,0-35.3-15.8-35.3-35.3s15.8-35.3,35.3-35.3s35.3,15.8,35.3,35.3
				C460.5,551.6,444.7,567.4,425.3,567.4z M425.3,507c-13.9,0-25.2,11.3-25.2,25.2c0,13.9,11.3,25.2,25.2,25.2
				c13.9,0,25.2-11.3,25.2-25.2S439.2,507,425.3,507z"/>
		</g>
	</g>
	<g>
		<g>
			<circle class="st12" cx="75.2" cy="244.8" r="14.4"/>
		</g>
		<g>
			<ellipse class="st13" cx="75.2" cy="238.6" rx="10.3" ry="10.3"/>
		</g>
		<g>
			<path class="st1" d="M75.2,253.9c-8.5,0-15.4-6.9-15.4-15.4c0-8.5,6.9-15.4,15.4-15.4c8.5,0,15.4,6.9,15.4,15.4
				C90.5,247,83.7,253.9,75.2,253.9z M75.2,233.2c-2.9,0-5.3,2.4-5.3,5.3s2.4,5.3,5.3,5.3c2.9,0,5.3-2.4,5.3-5.3
				C80.5,235.6,78.1,233.2,75.2,233.2z"/>
		</g>
		<g>
			<path class="st1" d="M96.1,275.2H54.2c-2.8,0-5-2.2-5-5c0-2.8,2.2-5,5-5h41.9c2.8,0,5,2.2,5,5C101.2,273,98.9,275.2,96.1,275.2z"
				/>
		</g>
	</g>
	<g>
		<g>
			<path class="st1" d="M363.5,628.4c-1.9,0-3.7-1.1-4.6-2.9c-1.2-2.5-0.1-5.5,2.4-6.7l15.7-7.3c2.5-1.2,5.5-0.1,6.7,2.4
				c1.2,2.5,0.1,5.5-2.4,6.7l-15.7,7.3C364.9,628.3,364.2,628.4,363.5,628.4z"/>
		</g>
		<g>
			<path class="st1" d="M444.1,590.6c-1.9,0-3.7-1.1-4.6-2.9c-1.2-2.5-0.1-5.5,2.4-6.7l15.7-7.3c2.5-1.2,5.5-0.1,6.7,2.4
				c1.2,2.5,0.1,5.5-2.4,6.7l-15.7,7.3C445.6,590.5,444.9,590.6,444.1,590.6z"/>
		</g>
	</g>
	<g>
		<g>
			<path class="st11" d="M29.1,754.4c-2.8,0-5-2.3-5-5v-9.3c0-2.8,2.2-5,5-5c2.8,0,5,2.3,5,5v9.3C34.1,752.2,31.9,754.4,29.1,754.4z
				"/>
		</g>
	</g>
	<g>
		<g>
			<path class="st11" d="M29.1,730.2c-2.8,0-5-2.3-5-5V612c0-2.8,2.2-5,5-5c2.8,0,5,2.3,5,5v113.2C34.1,727.9,31.9,730.2,29.1,730.2
				z"/>
		</g>
	</g>
	
		<linearGradient id="SVGID_00000097473936130167134880000000896528466025358977_" gradientUnits="userSpaceOnUse" x1="98.87" y1="562.465" x2="394.49" y2="562.465" gradientTransform="matrix(1 0 0 -1 0 822)">
		<stop  offset="0" style="stop-color:#200E36"/>
		<stop  offset="1" style="stop-color:#242783"/>
	</linearGradient>
	<path style="fill:url(#SVGID_00000097473936130167134880000000896528466025358977_);" d="M383.8,128.3H382v243.4
		c0,5.7-4.6,10.2-10.2,10.2H122.2c-5.7,0-10.2-4.6-10.2-10.2V128.3h-2.4c-5.9,0-10.7,4.8-10.7,10.7v241c0,5.9,4.8,10.7,10.7,10.7
		h274.2c5.9,0,10.7-4.8,10.7-10.7V139C394.5,133.1,389.7,128.3,383.8,128.3z"/>
</g>
<g>
	<path class="st1" d="M114.2,621.3H89c-7.1,0-12.8-5.7-12.8-12.8v-26.3H49.9c-7,0-12.8-5.7-12.8-12.8v-25.2c0-7,5.7-12.8,12.8-12.8
		h26.3V505c0-7,5.7-12.8,12.8-12.8h25.2c7.1,0,12.8,5.7,12.8,12.8v26.4h26.4c7.1,0,12.8,5.7,12.8,12.8v25.2c0,7-5.7,12.8-12.8,12.8
		H127v26.3C127,615.5,121.2,621.3,114.2,621.3z M49.9,541.5c-1.5,0-2.7,1.2-2.7,2.7v25.2c0,1.5,1.2,2.7,2.7,2.7h31.4
		c2.8,0,5,2.2,5,5v31.4c0,1.5,1.2,2.7,2.7,2.7h25.2c1.5,0,2.7-1.2,2.7-2.7v-31.4c0-2.8,2.3-5,5-5h31.4c1.5,0,2.7-1.2,2.7-2.7v-25.2
		c0-1.5-1.2-2.7-2.7-2.7h-31.4c-2.8,0-5-2.3-5-5V505c0-1.5-1.2-2.7-2.7-2.7H89c-1.5,0-2.7,1.2-2.7,2.7v31.4c0,2.8-2.2,5-5,5
		L49.9,541.5L49.9,541.5z"/>
</g>
<g>
	<path class="st15" d="M153.3,536.4h-31.4V505c0-4.3-3.5-7.8-7.8-7.8H89c-4.3,0-7.8,3.5-7.8,7.8v31.4H49.9c-4.3,0-7.8,3.5-7.8,7.8
		v25.2c0,4.3,3.5,7.8,7.8,7.8h31.4v31.4c0,4.3,3.5,7.8,7.8,7.8h25.2c4.3,0,7.8-3.5,7.8-7.8v-31.4h31.4c4.3,0,7.8-3.5,7.8-7.8v-25.2
		C161.1,539.9,157.6,536.4,153.3,536.4z"/>
</g>
<path class="st16" d="M118.5,537.2H84.7c-0.5,1.2-1.4,2.1-2.6,2.6l0,33.8c1.2,0.5,2.1,1.4,2.6,2.6h33.8c0.5-1.2,1.4-2.1,2.6-2.6
	l0-33.8C119.9,539.4,119,538.4,118.5,537.2z"/>
<path class="st16" d="M118.2,536.3c-0.1-0.4-0.1-0.8-0.1-1.1v-27.2c0-4.6-2.8-8.3-6.3-8.3H91.3c-3.5,0-6.3,3.7-6.3,8.3v27.2
	c0,0.4,0,0.8-0.1,1.1H118.2z"/>
<path class="st16" d="M85,577.3c0.1,0.4,0.1,0.8,0.1,1.2v27.2c0,4.6,2.8,8.3,6.3,8.3h20.5c3.5,0,6.3-3.7,6.3-8.3v-27.2
	c0-0.4,0-0.8,0.1-1.2H85z"/>
<g>
	<g>
		<g>
			<path class="st17" d="M93.1,532.6c-1.9,0-3.5-1.6-3.5-3.5v-13.5c0-1.9,1.6-3.5,3.5-3.5s3.5,1.6,3.5,3.5v13.5
				C96.6,531.1,95,532.6,93.1,532.6z"/>
		</g>
	</g>
</g>
</svg>
