<?xml version="1.0" encoding="utf-8"?>
<!-- Generator: Adobe Illustrator 25.4.1, SVG Export Plug-In . SVG Version: 6.00 Build 0)  -->
<svg version="1.1" id="Layer_1" xmlns="http://www.w3.org/2000/svg" xmlns:xlink="http://www.w3.org/1999/xlink" x="0px" y="0px"
	 viewBox="0 0 450 375" style="enable-background:new 0 0 450 375;" xml:space="preserve">
<style type="text/css">
	.st0{fill:#FFF6E6;}
	.st1{fill:#F5B096;}
	.st2{fill:#C6CC87;}
	.st3{fill:#221E1F;}
	.st4{fill:#E33058;}
	.st5{clip-path:url(#SVGID_00000039104785263474129590000005611952331725915291_);}
	.st6{fill:#995360;}
	.st7{fill:#5B1147;}
	.st8{fill:#F3E602;}
	.st9{fill:#BD3D55;}
	.st10{fill:#F15C49;}
	.st11{fill:#F47C3F;}
	.st12{fill:none;}
	.st13{fill:#3F51A3;}
	.st14{fill:#FAF9D8;}
	.st15{fill:#E81183;}
	.st16{fill:#F4ECF5;}
	.st17{fill:#E6CAC6;}
	.st18{fill:#EECE17;}
</style>
<g>
	<g>
		<g>
			<g>
				<path class="st0" d="M449.7,262.67c0,0-8.07-60.57-88.42-60.57c-32.74,0-75.99,0-115.75,0h-14.64h-11.78h-14.64
					c-39.75,0-83,0-115.75,0c-80.35,0-88.42,60.57-88.42,60.57s-8.51,47.66,64.94,52.93c55.89,4.01,80.01,15.13,88.35,20.22
					c2.02,1.23,3.79,2.82,5.23,4.71c5.91,7.78,28.03,34.47,53.32,34.47c3.75,0,6.72,0,9.05,0c0.01,0,0.49,0,1.7,0
					c0.93,0,2.31,0,4.23,0c0.52,0,1.09,0,1.7,0c2.33,0,5.3,0,9.05,0c25.3,0,47.41-26.69,53.32-34.47c1.44-1.89,3.21-3.48,5.23-4.71
					c8.34-5.09,32.46-16.21,88.35-20.22C458.21,310.33,449.7,262.67,449.7,262.67z M370.99,285.94H79.01v-66.46l9.35-0.05
					c3.06,0.03,6.28,0.05,9.68,0.05c70.12,0,110.99,0,110.99,0h1.54c0,0,40.87,0,110.99,0l7.24-0.03h42.18V285.94z"/>
			</g>
		</g>
	</g>
</g>
<path class="st1" d="M385.32,208.31l-125.84,7.8c0,0,1.94,1.48,5.53,3.36c15.79,0,34.76,0,56.55,0l7.24-0.03h42.18v14.11
	c17.1,2.15,31.17-3.03,34.22-10.14C408.98,214.65,385.32,208.31,385.32,208.31z"/>
<path class="st2" d="M79.01,219.48l9.35-0.05c3.06,0.03,6.28,0.05,9.68,0.05c7.33,0,14.34,0,21.02,0
	c-10.33-9.71-41.32-4.24-41.32-4.24s-20.34-0.29-26.14,13.46c-5.81,13.75-7.26,29.55-16.26,36.58c-9,7.02-20.86,21.19-13.48,38.54
	c9.66,5.84,23.52,10.37,43.38,11.79c18.36,1.32,33.27,3.4,45.34,5.79c2.42-4.49,2.57-10.85-1.79-21c-2.12-4.94-3.76-9.78-4.98-14.45
	H79.01V219.48z"/>
<g>
	<path class="st3" d="M344,219.45c62.52-0.45,57.94-6.75,57.94-6.75s-5.45-5.9-55.71-6.99l-243.38,0.07
		c-47.6,1.24-52.84,6.92-52.84,6.92s-4.46,6.13,55.5,6.73L344,219.45z"/>
</g>
<g>
	<path class="st4" d="M347.16,205.71c-10.61-16.94-65.44-29.83-65.44-29.83s-48.48-12.44-51.53-76.81
		c-3.05-64.37-0.71-68.03-4.27-65.84c0,0-3.17,1.57-1.72,67.26c1.45,65.69-55.71,71.58-58.17,72.75
		c-2.36,1.12-57.16,9.07-64.22,32.54c-0.32,1.07-0.55,2.17-0.67,3.31c-0.43,4.25,0.87,7.64,3.33,10.34
		c3.06,0.03,6.28,0.05,9.68,0.05c70.12,0,110.99,0,110.99,0h1.54c0,0,40.87,0,110.99,0c2.51,0,4.92-0.01,7.24-0.03
		c2.5-2.19,4.01-4.87,4.01-8.17C348.93,209.39,348.3,207.53,347.16,205.71z"/>
	<g>
		<defs>
			<path id="SVGID_1_" d="M347.16,205.71c-10.61-16.94-65.44-29.83-65.44-29.83s-48.48-12.44-51.53-76.81
				c-3.05-64.37-0.71-68.03-4.27-65.84c0,0-3.17,1.57-1.72,67.26c1.45,65.69-55.71,71.58-58.17,72.75
				c-2.36,1.12-57.16,9.07-64.22,32.54c-0.32,1.07-0.55,2.17-0.67,3.31c-0.43,4.25,0.87,7.64,3.33,10.34
				c3.06,0.03,6.28,0.05,9.68,0.05c70.12,0,110.99,0,110.99,0h1.54c0,0,40.87,0,110.99,0c2.51,0,4.92-0.01,7.24-0.03
				c2.5-2.19,4.01-4.87,4.01-8.17C348.93,209.39,348.3,207.53,347.16,205.71z"/>
		</defs>
		<clipPath id="SVGID_00000116945095451174312250000008032816054039772039_">
			<use xlink:href="#SVGID_1_"  style="overflow:visible;"/>
		</clipPath>
		<g style="clip-path:url(#SVGID_00000116945095451174312250000008032816054039772039_);">
			<path class="st6" d="M239.51,53.64l-4.14,62.98c0,0-18.29-1.1-18.07-32.48c0.22-31.38,22.21-46.96,22.21-46.96V53.64z"/>
			<path class="st7" d="M230.8,38.94c0,0-11.38,24.8-5.8,32.26c5.58,7.46,14.72,3.95,14.72,3.95l2.91-26.34L230.8,38.94z"/>
			<path class="st8" d="M215.77,108.06c0,0,6.43-67.81,10.07-51.57c3.65,16.24,13.66,57.28,13.66,57.28s-7.19,44.11-11.11,30.07
				C224.48,129.79,215.77,108.06,215.77,108.06z"/>
			<path class="st9" d="M214.47,117.5c0,0,5.4,30.72-11.13,44.99c0,0,15.84-5.27,20.12-17.12c0,0,3.85,15.36,4.18,32.92
				c0,0,4.03,25.9,7.08,19.31c3.05-6.58,0.87-38.62,3.05-41.26c2.18-2.63,5.44-1.32,11.1,14.48c5.66,15.8,31.14,27.85,31.14,27.85
				s17.92,7.49,6.78-6.78c0,0-27.9-9.22-32.69-35.77c-4.79-26.55-13.13-55.84-13.13-55.84S217.73,92.04,214.47,117.5z"/>
			<path class="st10" d="M117.57,185.31c0,0,52.48-15.14,59.44-3.95c6.97,11.19-1.52,26.12,5.23,28.31
				c6.75,2.19,33.45,1.51,41.22-3.96c7.77-5.47,47.62-6.81,55.89,0s40.28,8.57,42.24-2.62c1.96-11.19-20.25-31.51,9.36-25.85
				c29.61,5.66,18.94,51.75,18.94,51.75l-225.8,2.85l-37.23-16.9l18.66-26.34L117.57,185.31z"/>
			<path class="st11" d="M111.04,180.05c0,0,15.68,30.29,34.84,35.11s38.1,5.27,55.74,5.27s39.85,0.88,65.32,2.85
				s37.73,4.61,52.72-1.98c14.99-6.58,25.88-14.26,25.88-14.26l20.25-19.53l7.22,62.33l-208.19,12.07l-87.08-21.29l-4.8-29.63
				l20.9-23.7L111.04,180.05z"/>
		</g>
	</g>
	<path class="st12" d="M223.83,67.67c-32.12,0.14-52.91,5.9-57.54,9.72c4.64,3.82,25.48,9.6,57.67,9.72
		C223.85,79.65,223.81,73.21,223.83,67.67z"/>
	<path class="st12" d="M230.47,103.22c0.24,3.04,0.59,5.95,1.03,8.75c22.41-0.37,36.39-2.58,41.85-4.37
		C267.8,105.79,253.48,103.54,230.47,103.22z"/>
	<path class="st12" d="M224.23,103.19c-25.78,0.05-41.66,2.49-47.58,4.42c5.88,1.92,21.64,4.34,47.17,4.42
		C224.08,109.21,224.22,106.26,224.23,103.19z"/>
	<path class="st12" d="M228.93,67.69c0.18,5.57,0.41,11.99,0.72,19.38c30.13-0.52,49.6-6.01,54.06-9.68
		C279.22,73.68,259.48,68.14,228.93,67.69z"/>
	<path class="st13" d="M273.35,107.6c-5.46,1.79-19.43,4-41.85,4.37c0.16,1.04,0.34,2.07,0.53,3.08c26.2-0.48,46.43-3.63,46.43-7.45
		c0-3.9-21.14-7.11-48.2-7.48c0.06,1.05,0.13,2.08,0.21,3.09C253.48,103.54,267.8,105.79,273.35,107.6z"/>
	<path class="st13" d="M176.65,107.6c5.91-1.93,21.8-4.37,47.58-4.42c0-0.89,0-1.78-0.02-2.69c0-0.14-0.01-0.27-0.01-0.4
		c-29.15,0.06-52.65,3.4-52.65,7.51c0,4.08,23.12,7.4,51.94,7.51c0.13-1.01,0.24-2.04,0.34-3.09
		C198.29,111.95,182.53,109.53,176.65,107.6z"/>
	<path class="st14" d="M283.71,77.39c-4.46,3.68-23.92,9.16-54.06,9.68c0.08,1.92,0.17,3.9,0.26,5.96
		c33.72-0.61,60.3-7.37,60.3-15.64c0-8.36-27.19-15.2-61.46-15.66c0.05,1.87,0.11,3.86,0.18,5.97
		C259.48,68.14,279.22,73.68,283.71,77.39z"/>
	<path class="st14" d="M166.29,77.39c4.63-3.82,25.42-9.58,57.54-9.72c0.01-2.12,0.02-4.1,0.04-5.96
		c-35.49,0.15-64.08,7.11-64.08,15.68c0,8.59,28.69,15.56,64.27,15.69c-0.04-2.06-0.07-4.04-0.1-5.96
		C191.77,86.99,170.92,81.22,166.29,77.39z"/>
	<path class="st15" d="M225,28.61c15.69,0,28.4-2.67,28.4-5.96c0-3.29-12.72-5.96-28.4-5.96c-15.69,0-28.4,2.67-28.4,5.96
		C196.6,25.94,209.31,28.61,225,28.61z M225,19.14c14.89,0,23.15,2.32,24.74,3.51c-1.59,1.18-9.85,3.51-24.74,3.51
		c-14.89,0-23.15-2.32-24.74-3.51C201.85,21.47,210.11,19.14,225,19.14z"/>
	<path class="st16" d="M225,10.1c9.27,0,16.79-2.26,16.79-5.05C241.79,2.26,234.27,0,225,0c-9.27,0-16.79,2.26-16.79,5.05
		C208.21,7.84,215.73,10.1,225,10.1z M225,1.92c8.44,0,13.91,1.89,15.12,3.13c-1.21,1.24-6.68,3.13-15.12,3.13
		s-13.91-1.89-15.12-3.13C211.09,3.81,216.56,1.92,225,1.92z"/>
	<path class="st13" d="M232.03,115.05c-0.19-1.01-0.37-2.04-0.53-3.08c-2.09,0.03-4.26,0.05-6.5,0.05c-0.4,0-0.78,0-1.17,0
		c-0.1,1.05-0.21,2.08-0.34,3.09c0.5,0,1.01,0.01,1.51,0.01C227.38,115.12,229.73,115.09,232.03,115.05z"/>
	<path class="st14" d="M229.92,93.03c-0.09-2.05-0.18-4.04-0.26-5.96c-1.53,0.03-3.07,0.04-4.66,0.04c-0.35,0-0.69,0-1.04-0.01
		c0.03,1.92,0.06,3.91,0.1,5.96c0.32,0,0.63,0.01,0.94,0.01C226.66,93.08,228.29,93.06,229.92,93.03z"/>
</g>
<g>
	<path class="st17" d="M220.85,328.77c-20.32-9.66-14.52-14.92-24.25-29.85c-9.74-14.92-25.68-1.17-41.07,3.8
		c-8.54,2.76-15.91,14.74-20.79,24.85c9.55,3.15,15.48,6.19,18.85,8.24c2.02,1.23,3.79,2.82,5.23,4.71
		c5.91,7.78,28.03,34.47,53.32,34.47c3.75,0,6.72,0,9.05,0c0.01,0,0.49,0,1.7,0c0.93,0,2.31,0,4.23,0c0.52,0,1.09,0,1.7,0
		c2.33,0,5.3,0,9.05,0c10.33,0,20.13-4.45,28.51-10.25c-2.24-6.82-4.69-13.08-6.89-16.96C252.53,335.5,241.18,338.42,220.85,328.77z
		"/>
</g>
<g>
	<path class="st18" d="M418.56,254.44c-17.71-14.92-19.45,1.76-43.84,18.43c-1.35,0.92-2.58,1.76-3.74,2.55v10.51h-16.19
		c-4.81,2.83-10.07,5.64-26.52,15.62c-15.86,9.62-25.02,22.71-30.22,33.31c9.65-5.42,34.1-15.49,86.71-19.26
		c26.48-1.9,42.31-9.31,51.72-18.01C436.67,284.1,430.97,264.9,418.56,254.44z"/>
	<path class="st0" d="M370.99,219.45h-42.18l-7.24,0.03c-70.12,0-110.99,0-110.99,0h-1.54c0,0-40.87,0-110.99,0
		c-3.4,0-6.62-0.02-9.68-0.05l-9.35,0.05v66.46h275.78c3.85-2.26,7.41-4.54,16.19-10.51V219.45z"/>
	<path class="st18" d="M370.99,275.43c-8.78,5.97-12.34,8.25-16.19,10.51h16.19V275.43z"/>
</g>
<path class="st2" d="M109.66,240.4c9.58-6.44,19.16-6.73,11.03-19.02c-0.46-0.69-1.01-1.32-1.63-1.9c-6.68,0-13.69,0-21.02,0
	c-3.4,0-6.62-0.02-9.68-0.05l-9.35,0.05v66.46h24.79C98,263.81,101.75,245.72,109.66,240.4z"/>
<path class="st1" d="M328.81,219.45l-7.24,0.03c-21.79,0-40.76,0-56.55,0c7.36,3.86,21.68,9.43,40.61,7.46
	c28.16-2.93,30.48-3.51,52.84,3.8c4.27,1.4,8.48,2.31,12.52,2.82v-14.11H328.81z"/>
</svg>
