<?xml version="1.0" encoding="utf-8"?>
<!-- Generator: Adobe Illustrator 25.4.1, SVG Export Plug-In . SVG Version: 6.00 Build 0)  -->
<svg version="1.1" id="Layer_1" xmlns="http://www.w3.org/2000/svg" xmlns:xlink="http://www.w3.org/1999/xlink" x="0px" y="0px"
	 viewBox="0 0 360 91" style="enable-background:new 0 0 360 91;" xml:space="preserve">
<style type="text/css">
	.st0{fill:#FFFFFF;}
	.st1{fill:#EB0D8C;}
</style>
<g>
	<g>
		<path class="st0" d="M19.85,0.31l37.92,60.63h0.25V0.31h18.7v90.38H56.75L18.96,30.18H18.7v60.51H0V0.31H19.85z"/>
		<path class="st0" d="M158.15,0.31v16.71h-43.9v20.89h38.04v15.44h-38.04v37.34H94.28V0.31H158.15z"/>
		<path class="st0" d="M159.93,0.31h22.39l21.25,35.7l21.12-35.7h22.27l-33.72,55.7v34.68h-19.97V55.5L159.93,0.31z"/>
		<path class="st0" d="M322.53,0.31v16.71h-47.97v19.37h44.02v15.44h-44.02v22.15h48.99v16.71h-68.96V0.31H322.53z"/>
	</g>
	<rect x="340.36" y="71.15" class="st1" width="19.64" height="19.54"/>
</g>
</svg>
