<?xml version="1.0" encoding="utf-8"?>
<!-- Generator: Adobe Illustrator 25.4.1, SVG Export Plug-In . SVG Version: 6.00 Build 0)  -->
<svg version="1.1" id="Layer_1" xmlns="http://www.w3.org/2000/svg" xmlns:xlink="http://www.w3.org/1999/xlink" x="0px" y="0px"
	 viewBox="0 0 500 500" style="enable-background:new 0 0 500 500;" xml:space="preserve">
<style type="text/css">
	.st0{fill:url(#SVGID_1_);}
	.st1{fill:#FFFFFF;}
	.st2{fill:#EB0D8C;}
</style>
<linearGradient id="SVGID_1_" gradientUnits="userSpaceOnUse" x1="250" y1="500" x2="250" y2="-9.094947e-13">
	<stop  offset="0" style="stop-color:#7A337C"/>
	<stop  offset="1" style="stop-color:#6C3282"/>
</linearGradient>
<rect class="st0" width="500" height="500"/>
<g>
	<g>
		<path class="st1" d="M90.66,204.81l37.72,60.63h0.25v-60.63h18.61v90.38h-19.87l-37.6-60.51h-0.25v60.51H70.92v-90.38H90.66z"/>
		<path class="st1" d="M228.26,204.81v16.71h-43.67v20.89h37.85v15.44h-37.85v37.34h-19.87v-90.38H228.26z"/>
		<path class="st1" d="M230.03,204.81h22.28l21.14,35.7l21.01-35.7h22.15l-33.54,55.7v34.68H263.2V260L230.03,204.81z"/>
		<path class="st1" d="M391.81,204.81v16.71h-47.72v19.37h43.8v15.44h-43.8v22.15h48.74v16.71h-68.61v-90.38H391.81z"/>
	</g>
	<rect x="409.54" y="275.65" class="st2" width="19.54" height="19.54"/>
</g>
</svg>
