<?xml version="1.0" encoding="utf-8"?>
<!-- Generator: Adobe Illustrator 25.4.1, SVG Export Plug-In . SVG Version: 6.00 Build 0)  -->
<svg version="1.1" id="Layer_1" xmlns="http://www.w3.org/2000/svg" xmlns:xlink="http://www.w3.org/1999/xlink" x="0px" y="0px"
	 viewBox="0 0 36 36" style="enable-background:new 0 0 36 36;" xml:space="preserve">
<style type="text/css">
	.st0{fill:#5FFFC5;}
	.st1{fill:#FFFFFF;}
</style>
<path class="st0" d="M34,4V2h-2V0H4v2H2v2H0v28h2v2h2v2h28v-2h2v-2h2V4H34z"/>
<polygon class="st1" points="29,18 25,18 25,20 23,20 23,22 21,22 21,24 19,24 19,26 15.5,26 11.5,26 7,26 7,22 11,22 11,20 9,20 
	9,16 9,14 7,14 7,10 11,10 11,12 13,12 13,14 15,14 15,16 17,16 17,12 19,12 19,10 23,10 23,12 25,12 25,14 29,14 "/>
</svg>
